<mxfile host="app.diagrams.net" modified="2021-01-21T10:48:52.477Z" agent="5.0 (Windows)" etag="gK-79ukA4oCW2maoydIX" version="14.2.4" type="github">
  <diagram id="dTMpoPVIkahXSZqtG1Pm" name="Page-1">
    <mxGraphModel dx="1038" dy="547" grid="1" gridSize="10" guides="1" tooltips="1" connect="1" arrows="1" fold="1" page="1" pageScale="1" pageWidth="1169" pageHeight="827" math="0" shadow="0">
      <root>
        <mxCell id="0" />
        <mxCell id="1" parent="0" />
        <mxCell id="pj5xqQpvPvO0I1Rtv7KB-1" value="CONDUCTING A TRAINING NEEDS ASSESSMENT PROCESS" style="swimlane;" vertex="1" parent="1">
          <mxGeometry x="10" y="10" width="1150" height="810" as="geometry" />
        </mxCell>
        <mxCell id="pj5xqQpvPvO0I1Rtv7KB-2" value="Start" style="rounded=1;whiteSpace=wrap;html=1;" vertex="1" parent="pj5xqQpvPvO0I1Rtv7KB-1">
          <mxGeometry x="90" y="40" width="100" height="50" as="geometry" />
        </mxCell>
        <mxCell id="pj5xqQpvPvO0I1Rtv7KB-51" value="DD HR requests the Heads of Divisions, thematic areas and eco-regional research programmes to identify and submit their staff training and development needs for the next 3 (three) years" style="rounded=0;whiteSpace=wrap;html=1;" vertex="1" parent="pj5xqQpvPvO0I1Rtv7KB-1">
          <mxGeometry x="20" y="140" width="240" height="80" as="geometry" />
        </mxCell>
        <mxCell id="pj5xqQpvPvO0I1Rtv7KB-4" value="" style="edgeStyle=orthogonalEdgeStyle;rounded=0;orthogonalLoop=1;jettySize=auto;html=1;entryX=0.5;entryY=0;entryDx=0;entryDy=0;" edge="1" parent="pj5xqQpvPvO0I1Rtv7KB-1" source="pj5xqQpvPvO0I1Rtv7KB-2" target="pj5xqQpvPvO0I1Rtv7KB-51">
          <mxGeometry relative="1" as="geometry">
            <mxPoint x="140" y="140" as="targetPoint" />
          </mxGeometry>
        </mxCell>
        <mxCell id="pj5xqQpvPvO0I1Rtv7KB-52" value="HODs agree on training needs with staff working under their supervision and forward the same to the DDHR" style="whiteSpace=wrap;html=1;rounded=0;" vertex="1" parent="pj5xqQpvPvO0I1Rtv7KB-1">
          <mxGeometry x="55" y="290" width="170" height="80" as="geometry" />
        </mxCell>
        <mxCell id="pj5xqQpvPvO0I1Rtv7KB-53" value="" style="edgeStyle=orthogonalEdgeStyle;rounded=0;orthogonalLoop=1;jettySize=auto;html=1;" edge="1" parent="pj5xqQpvPvO0I1Rtv7KB-1" source="pj5xqQpvPvO0I1Rtv7KB-51" target="pj5xqQpvPvO0I1Rtv7KB-52">
          <mxGeometry relative="1" as="geometry" />
        </mxCell>
        <mxCell id="pj5xqQpvPvO0I1Rtv7KB-56" value="Head of Training and Development Unit generates a TNA report and present it to the Human Resource Training and Development Committee" style="whiteSpace=wrap;html=1;rounded=0;" vertex="1" parent="pj5xqQpvPvO0I1Rtv7KB-1">
          <mxGeometry x="35" y="615" width="210" height="85" as="geometry" />
        </mxCell>
        <mxCell id="pj5xqQpvPvO0I1Rtv7KB-60" value="Human Resource Training and Development Committee (HRT &amp;amp; DC) analyses and rationalizes the TNA report" style="whiteSpace=wrap;html=1;rounded=0;" vertex="1" parent="pj5xqQpvPvO0I1Rtv7KB-1">
          <mxGeometry x="370" y="612.5" width="160" height="90" as="geometry" />
        </mxCell>
        <mxCell id="pj5xqQpvPvO0I1Rtv7KB-61" value="" style="edgeStyle=orthogonalEdgeStyle;rounded=0;orthogonalLoop=1;jettySize=auto;html=1;" edge="1" parent="pj5xqQpvPvO0I1Rtv7KB-1" source="pj5xqQpvPvO0I1Rtv7KB-56" target="pj5xqQpvPvO0I1Rtv7KB-60">
          <mxGeometry relative="1" as="geometry" />
        </mxCell>
        <mxCell id="pj5xqQpvPvO0I1Rtv7KB-64" value="Human Resource Training and Development Committee (HRT &amp;amp; DC) shall analyse and rationalize the TNA report" style="whiteSpace=wrap;html=1;rounded=0;" vertex="1" parent="pj5xqQpvPvO0I1Rtv7KB-1">
          <mxGeometry x="360" y="280" width="180" height="81.25" as="geometry" />
        </mxCell>
        <mxCell id="pj5xqQpvPvO0I1Rtv7KB-68" value="DDHR submits report to the Director for approval" style="whiteSpace=wrap;html=1;rounded=0;" vertex="1" parent="pj5xqQpvPvO0I1Rtv7KB-1">
          <mxGeometry x="660" y="127.35" width="120" height="74.69" as="geometry" />
        </mxCell>
        <mxCell id="pj5xqQpvPvO0I1Rtv7KB-74" value="yes" style="text;html=1;strokeColor=none;fillColor=none;align=center;verticalAlign=middle;whiteSpace=wrap;rounded=0;" vertex="1" parent="pj5xqQpvPvO0I1Rtv7KB-1">
          <mxGeometry x="715" y="395" width="40" height="20" as="geometry" />
        </mxCell>
        <mxCell id="pj5xqQpvPvO0I1Rtv7KB-77" value="no" style="text;html=1;strokeColor=none;fillColor=none;align=center;verticalAlign=middle;whiteSpace=wrap;rounded=0;" vertex="1" parent="pj5xqQpvPvO0I1Rtv7KB-1">
          <mxGeometry x="780" y="295" width="40" height="20" as="geometry" />
        </mxCell>
        <mxCell id="pj5xqQpvPvO0I1Rtv7KB-83" value="End" style="rounded=1;whiteSpace=wrap;html=1;" vertex="1" parent="pj5xqQpvPvO0I1Rtv7KB-1">
          <mxGeometry x="670" y="612.5" width="100" height="50" as="geometry" />
        </mxCell>
        <mxCell id="pj5xqQpvPvO0I1Rtv7KB-57" value="" style="edgeStyle=orthogonalEdgeStyle;rounded=0;orthogonalLoop=1;jettySize=auto;html=1;" edge="1" parent="1" source="pj5xqQpvPvO0I1Rtv7KB-54" target="pj5xqQpvPvO0I1Rtv7KB-56">
          <mxGeometry relative="1" as="geometry" />
        </mxCell>
        <mxCell id="pj5xqQpvPvO0I1Rtv7KB-54" value="DDHR instructs the Head of Training and Development Unit to generate a TNA report." style="whiteSpace=wrap;html=1;rounded=0;" vertex="1" parent="1">
          <mxGeometry x="60" y="440" width="180" height="90" as="geometry" />
        </mxCell>
        <mxCell id="pj5xqQpvPvO0I1Rtv7KB-55" value="" style="edgeStyle=orthogonalEdgeStyle;rounded=0;orthogonalLoop=1;jettySize=auto;html=1;" edge="1" parent="1" source="pj5xqQpvPvO0I1Rtv7KB-52" target="pj5xqQpvPvO0I1Rtv7KB-54">
          <mxGeometry relative="1" as="geometry" />
        </mxCell>
        <mxCell id="pj5xqQpvPvO0I1Rtv7KB-65" value="" style="edgeStyle=orthogonalEdgeStyle;rounded=0;orthogonalLoop=1;jettySize=auto;html=1;" edge="1" parent="1" source="pj5xqQpvPvO0I1Rtv7KB-62" target="pj5xqQpvPvO0I1Rtv7KB-64">
          <mxGeometry relative="1" as="geometry" />
        </mxCell>
        <mxCell id="pj5xqQpvPvO0I1Rtv7KB-62" value="Head of Training and Development Unit submits the rationalized Training Needs Report to DDHR" style="whiteSpace=wrap;html=1;rounded=0;" vertex="1" parent="1">
          <mxGeometry x="380" y="460" width="160" height="82.5" as="geometry" />
        </mxCell>
        <mxCell id="pj5xqQpvPvO0I1Rtv7KB-63" value="" style="edgeStyle=orthogonalEdgeStyle;rounded=0;orthogonalLoop=1;jettySize=auto;html=1;" edge="1" parent="1" source="pj5xqQpvPvO0I1Rtv7KB-60" target="pj5xqQpvPvO0I1Rtv7KB-62">
          <mxGeometry relative="1" as="geometry" />
        </mxCell>
        <mxCell id="pj5xqQpvPvO0I1Rtv7KB-69" value="" style="edgeStyle=orthogonalEdgeStyle;rounded=0;orthogonalLoop=1;jettySize=auto;html=1;" edge="1" parent="1" source="pj5xqQpvPvO0I1Rtv7KB-66" target="pj5xqQpvPvO0I1Rtv7KB-68">
          <mxGeometry relative="1" as="geometry" />
        </mxCell>
        <mxCell id="pj5xqQpvPvO0I1Rtv7KB-66" value="Head of Training and Development Unit shall submit the rationalized Training Needs Report to DDHR" style="whiteSpace=wrap;html=1;rounded=0;" vertex="1" parent="1">
          <mxGeometry x="370" y="139.38" width="180" height="70.62" as="geometry" />
        </mxCell>
        <mxCell id="pj5xqQpvPvO0I1Rtv7KB-67" value="" style="edgeStyle=orthogonalEdgeStyle;rounded=0;orthogonalLoop=1;jettySize=auto;html=1;" edge="1" parent="1" source="pj5xqQpvPvO0I1Rtv7KB-64" target="pj5xqQpvPvO0I1Rtv7KB-66">
          <mxGeometry relative="1" as="geometry" />
        </mxCell>
        <mxCell id="pj5xqQpvPvO0I1Rtv7KB-73" value="" style="edgeStyle=orthogonalEdgeStyle;rounded=0;orthogonalLoop=1;jettySize=auto;html=1;" edge="1" parent="1" source="pj5xqQpvPvO0I1Rtv7KB-70" target="pj5xqQpvPvO0I1Rtv7KB-72">
          <mxGeometry relative="1" as="geometry" />
        </mxCell>
        <mxCell id="pj5xqQpvPvO0I1Rtv7KB-76" value="" style="edgeStyle=orthogonalEdgeStyle;rounded=0;orthogonalLoop=1;jettySize=auto;html=1;" edge="1" parent="1" source="pj5xqQpvPvO0I1Rtv7KB-70" target="pj5xqQpvPvO0I1Rtv7KB-75">
          <mxGeometry relative="1" as="geometry" />
        </mxCell>
        <mxCell id="pj5xqQpvPvO0I1Rtv7KB-70" value="&lt;div&gt;report&lt;br&gt;&lt;/div&gt;&lt;div&gt;Approved?&lt;/div&gt;" style="rhombus;whiteSpace=wrap;html=1;rounded=0;" vertex="1" parent="1">
          <mxGeometry x="680" y="289.39" width="100" height="80" as="geometry" />
        </mxCell>
        <mxCell id="pj5xqQpvPvO0I1Rtv7KB-71" value="" style="edgeStyle=orthogonalEdgeStyle;rounded=0;orthogonalLoop=1;jettySize=auto;html=1;" edge="1" parent="1" source="pj5xqQpvPvO0I1Rtv7KB-68" target="pj5xqQpvPvO0I1Rtv7KB-70">
          <mxGeometry relative="1" as="geometry" />
        </mxCell>
        <mxCell id="pj5xqQpvPvO0I1Rtv7KB-82" value="" style="edgeStyle=orthogonalEdgeStyle;rounded=0;orthogonalLoop=1;jettySize=auto;html=1;entryX=0.5;entryY=0;entryDx=0;entryDy=0;" edge="1" parent="1" source="pj5xqQpvPvO0I1Rtv7KB-72" target="pj5xqQpvPvO0I1Rtv7KB-83">
          <mxGeometry relative="1" as="geometry">
            <mxPoint x="730" y="620.3049999999998" as="targetPoint" />
          </mxGeometry>
        </mxCell>
        <mxCell id="pj5xqQpvPvO0I1Rtv7KB-72" value="DDHR ensures consideration of the TNA report when implementing annual Training and Development Plans for the next three (3) years" style="whiteSpace=wrap;html=1;rounded=0;" vertex="1" parent="1">
          <mxGeometry x="640" y="459.39" width="180" height="80.61" as="geometry" />
        </mxCell>
        <mxCell id="pj5xqQpvPvO0I1Rtv7KB-80" value="" style="edgeStyle=orthogonalEdgeStyle;rounded=0;orthogonalLoop=1;jettySize=auto;html=1;entryX=1;entryY=0.5;entryDx=0;entryDy=0;exitX=0.5;exitY=1;exitDx=0;exitDy=0;" edge="1" parent="1" source="pj5xqQpvPvO0I1Rtv7KB-75" target="pj5xqQpvPvO0I1Rtv7KB-72">
          <mxGeometry relative="1" as="geometry">
            <mxPoint x="935" y="470" as="targetPoint" />
            <Array as="points">
              <mxPoint x="935" y="500" />
            </Array>
          </mxGeometry>
        </mxCell>
        <mxCell id="pj5xqQpvPvO0I1Rtv7KB-75" value="Head of Training Unit shall inform the Chair of the T&amp;amp;D Committee of the same and implement Director’s recommendation on the report" style="whiteSpace=wrap;html=1;rounded=0;" vertex="1" parent="1">
          <mxGeometry x="850" y="280" width="170" height="100" as="geometry" />
        </mxCell>
      </root>
    </mxGraphModel>
  </diagram>
</mxfile>
